<?xml version="1.0" encoding="UTF-8"?>
<svg id="Layer_12" data-name="Layer 12" xmlns="http://www.w3.org/2000/svg" viewBox="0 0 487.14 423.32">
  <defs>
    <style>
      .cls-1 {
        fill: #fff;
      }

      .cls-2 {
        fill: #009bb7;
      }
    </style>
  </defs>
  <circle class="cls-2" cx="242.79" cy="211.71" r="211.61"/>
  <g>
    <path class="cls-1" d="M134.3,235.59h59.36c.89,0,5.84,4.01,6.75,5.23,8.55,11.57-3.74,20.74-11.22,28.25,42.57,38.98,111.65,22.53,132.43-31.22,4.46-11.53,3.3-31.49,19.67-30.27,24.53,1.83,5.75,43.14-.96,55.01-34.63,61.29-119.4,74.82-170.61,25.98-7.96,7.33-16.27,20.79-28.8,13.84-1.74-.97-6.62-6.81-6.62-8.36v-58.47Z"/>
    <path class="cls-1" d="M354.78,179.62h-59.36c-2.93,0-7.68-6.57-8.54-9.43-3.41-11.36,6.95-15.58,12.95-23.19.46-2.63-14.09-11.45-16.86-12.88-44.08-22.72-98.29-2.33-115.77,43.98-4.37,11.59-3.73,34.79-22.97,29.05-16.14-4.82-5.54-32.79-1.13-43.2,18.76-44.28,67.29-72.71,115.24-66.12,22.74,3.13,44.52,12.93,61.16,28.75,9.9-6.18,14.05-20.34,28.35-13.48,2.18,1.05,6.93,6,6.93,8.05v58.47Z"/>
  </g>
</svg>